<?xml version="1.0" standalone="no"?>
<!DOCTYPE svg PUBLIC "-//W3C//DTD SVG 20010904//EN"
 "http://www.w3.org/TR/2001/REC-SVG-20010904/DTD/svg10.dtd">
<svg version="1.0" xmlns="http://www.w3.org/2000/svg"
 width="1024.000000pt" height="1024.000000pt" viewBox="0 0 1024.000000 1024.000000"
 preserveAspectRatio="xMidYMid meet">

<g transform="translate(0.000000,1024.000000) scale(0.100000,-0.100000)"
fill="#000000" stroke="none">
<path d="M5065 9264 c-529 -53 -885 -156 -1371 -400 -146 -72 -214 -123 -214
-158 0 -13 12 -36 27 -51 41 -40 85 -31 215 44 58 33 109 61 113 61 3 0 47 20
96 45 93 46 473 181 589 209 181 43 266 58 455 80 112 13 564 17 712 7 305
-21 707 -117 951 -226 18 -8 37 -15 43 -15 6 0 41 -13 79 -30 78 -34 120 -38
143 -12 36 40 15 106 -47 149 -42 30 -155 83 -175 83 -7 0 -26 8 -44 17 -92
48 -504 144 -737 173 -133 16 -250 22 -485 24 -170 2 -328 2 -350 0z"/>
<path d="M7291 8953 c-98 -35 -176 -157 -188 -288 -6 -70 -7 -74 -36 -86 -16
-7 -50 -29 -76 -48 -25 -20 -73 -54 -105 -75 -33 -21 -89 -67 -126 -101 -100
-94 -109 -97 -232 -84 -57 6 -127 16 -157 23 l-55 12 -12 72 c-15 86 -56 143
-136 188 -45 25 -64 29 -128 29 -65 0 -84 -4 -142 -33 -110 -54 -158 -133
-158 -259 0 -44 6 -76 20 -103 27 -52 25 -66 -7 -87 -16 -9 -36 -25 -45 -35
-10 -9 -50 -42 -89 -73 -38 -31 -98 -83 -132 -114 -34 -32 -69 -60 -79 -64 -9
-3 -37 1 -62 8 -79 24 -155 35 -319 44 -94 6 -164 15 -173 22 -8 6 -21 35 -29
64 -20 68 -96 162 -155 191 -99 50 -206 37 -298 -35 -69 -55 -102 -124 -102
-212 0 -37 5 -80 11 -96 9 -24 7 -30 -12 -45 -55 -46 -274 -252 -359 -340
l-95 -98 -55 28 c-72 35 -174 38 -236 5 -78 -42 -153 -141 -164 -217 l-5 -41
-85 3 c-133 6 -202 -33 -188 -104 6 -34 31 -39 145 -25 59 7 115 17 124 22 12
6 20 0 32 -26 66 -138 240 -199 377 -134 70 33 112 76 147 146 34 70 39 169
10 201 -17 19 -16 21 55 89 40 39 105 98 143 133 39 34 116 105 172 157 l101
94 49 -25 c59 -31 133 -46 177 -36 53 12 136 61 163 97 29 37 44 39 165 23 40
-5 115 -14 167 -20 102 -12 133 -24 171 -65 53 -58 128 -67 198 -25 23 14 35
33 48 77 22 71 33 84 109 136 74 50 143 106 210 171 l50 48 50 -18 c59 -21
148 -21 199 0 20 8 59 38 88 67 l51 51 51 -20 c120 -49 152 -56 246 -57 79 -2
97 1 107 15 7 10 25 22 40 29 16 6 36 24 47 39 17 26 118 102 269 203 38 26
86 64 107 84 l38 37 43 -31 c56 -41 139 -65 200 -58 97 12 164 66 224 182 33
63 36 75 31 129 -9 104 -73 203 -161 249 -54 27 -173 33 -234 10z m179 -159
c58 -50 75 -118 46 -188 -16 -39 -71 -76 -113 -76 -96 0 -181 160 -123 232 47
60 138 75 190 32z m-1380 -379 c33 -17 80 -90 80 -124 0 -12 -7 -35 -15 -51
-49 -96 -165 -94 -240 4 -24 31 -27 43 -22 83 7 67 48 103 118 103 27 0 63 -7
79 -15z m-1480 -407 c34 -18 51 -35 69 -71 23 -46 23 -51 10 -95 -25 -80 -106
-114 -182 -77 -35 17 -84 76 -93 112 -18 69 52 147 136 152 9 1 36 -9 60 -21z
m-882 -815 c46 -52 58 -104 35 -151 -22 -45 -75 -82 -118 -82 -46 0 -96 38
-123 92 -21 41 -22 52 -13 81 13 38 53 81 91 96 43 18 92 4 128 -36z"/>
<path d="M1991 8431 c-24 -22 -31 -38 -31 -66 0 -115 117 -160 185 -71 56 74
12 166 -80 166 -34 0 -50 -6 -74 -29z"/>
<path d="M3345 8207 c10 -195 11 -199 67 -217 25 -8 55 -23 66 -33 23 -21 142
-34 216 -23 44 7 46 9 46 39 0 18 -9 50 -19 72 -21 46 -77 125 -89 125 -4 0
-34 -25 -67 -56 -53 -49 -61 -53 -68 -36 -7 14 2 29 44 70 60 59 60 59 -29
124 -53 40 -118 68 -154 68 -20 0 -20 -4 -13 -133z"/>
<path d="M7240 7926 c-7 -7 -10 -559 -10 -1743 l0 -1734 -86 3 -85 3 -2 1425
-2 1425 -221 3 c-197 2 -223 1 -235 -14 -12 -14 -14 -240 -16 -1418 -1 -771
-2 -1409 -2 -1418 -1 -15 -11 -18 -63 -18 -35 0 -69 4 -75 8 -10 6 -13 264
-15 1213 l-3 1204 -224 8 c-124 4 -230 6 -238 3 -11 -4 -13 -219 -13 -1221 l0
-1215 -59 0 c-33 0 -66 3 -75 6 -14 6 -16 109 -16 1073 0 586 -3 1076 -7 1089
l-6 24 -223 -4 c-122 -2 -226 -7 -231 -11 -4 -5 -6 -497 -4 -1093 l3 -1085
-73 3 -74 3 4 878 4 877 -221 0 c-192 0 -221 -2 -233 -17 -15 -18 -19 -232
-19 -1220 l0 -513 -86 0 -86 0 3 789 c2 434 0 793 -4 798 -9 8 -408 6 -439 -3
-9 -3 -20 -14 -23 -24 -3 -11 -6 -340 -6 -732 0 -392 -3 -739 -6 -770 l-5 -58
-79 0 -80 0 1 698 c1 383 1 703 0 710 0 19 -443 13 -462 -6 -10 -10 -14 -155
-16 -707 l-4 -695 -80 0 -81 0 7 524 c6 379 4 530 -4 545 -10 20 -18 21 -225
21 -202 0 -215 -1 -225 -19 -6 -12 -10 -92 -10 -190 l0 -171 -67 0 c-38 0
-105 3 -150 7 l-83 6 0 1138 c0 756 -3 1147 -10 1165 -8 19 -7 50 1 103 10 67
10 81 -5 110 -19 36 -75 66 -106 56 -10 -3 -23 -20 -29 -36 -13 -37 -17 -2206
-5 -2860 l7 -417 -22 -7 c-24 -7 -61 -60 -61 -87 0 -9 14 -28 31 -42 l31 -26
3058 2 3059 3 28 21 c34 26 40 48 19 79 -24 36 -64 59 -115 65 l-45 5 -2 1224
c-2 673 -5 1226 -8 1228 -11 12 -439 8 -454 -3 -14 -11 -16 -132 -19 -1175 -2
-640 -4 -1188 -3 -1216 l0 -53 -81 0 -81 0 3 1743 4 1742 -227 1 c-145 0 -231
-3 -238 -10z m310 -1801 l0 -1675 -85 0 -85 0 0 293 c-1 1956 -2 2980 -1 3015
l1 42 85 0 85 0 0 -1675z m-646 1023 c3 -13 6 -625 6 -1360 l0 -1338 -83 0
-84 0 -6 118 c-4 64 -7 676 -7 1360 l0 1242 84 0 c78 0 84 -1 90 -22z m1284
-393 c6 -5 11 -2124 5 -2213 l-6 -93 -86 3 -86 3 -3 1144 c-2 629 -1 1150 2
1156 3 10 26 12 88 8 46 -3 84 -7 86 -8z m-1907 -1077 c2 -574 2 -1085 1
-1135 l-4 -93 -89 0 -89 0 0 1074 c0 590 -3 1101 -6 1135 l-7 61 95 0 96 0 3
-1042z m-631 210 c1 -332 1 -749 2 -928 0 -179 0 -367 -1 -417 l-1 -93 -84 0
-84 0 -7 153 c-3 83 -5 542 -3 1019 l3 868 88 0 87 0 0 -602z m-610 -86 c0
-148 -3 -512 -7 -810 l-6 -542 -79 0 -78 0 3 810 2 810 82 0 83 0 0 -268z
m-638 -602 c-2 -393 -6 -723 -9 -732 -4 -15 -17 -18 -84 -18 l-79 0 -1 133
c-1 72 -2 401 -3 729 l-1 597 55 4 c30 2 71 3 90 3 l35 -1 -3 -715z m-643 3
c-1 -296 -4 -586 -6 -645 l-5 -108 -79 0 -79 0 0 639 0 640 28 3 c15 2 53 4
85 6 l57 3 -1 -538z m-636 150 c6 -53 3 -338 -8 -681 -8 -253 -1 -236 -100
-230 -47 3 -50 5 -56 36 -10 47 -14 312 -11 640 l2 282 84 0 83 0 6 -47z
m-294 -600 c0 -252 -3 -313 -14 -313 -7 0 -16 7 -19 16 -10 26 -7 234 6 474
17 298 27 232 27 -177z m-220 267 l26 0 0 -283 c0 -319 7 -294 -83 -296 l-43
-1 2 288 c1 158 4 291 6 296 3 4 19 5 35 2 17 -3 42 -6 57 -6z"/>
<path d="M8253 7892 c-25 -16 -26 -60 -2 -99 34 -56 129 -153 150 -153 29 0
99 31 99 44 0 19 -121 190 -144 203 -23 14 -85 17 -103 5z"/>
<path d="M3567 7862 c-23 -3 -32 -13 -53 -60 l-25 -56 23 -19 c13 -10 42 -31
66 -48 41 -29 44 -30 67 -15 31 20 55 66 71 134 9 40 10 54 1 57 -18 6 -118
10 -150 7z"/>
<path d="M3013 7833 c-19 -7 -16 -38 7 -83 26 -50 58 -74 78 -57 13 10 14 9 4
-9 -15 -28 25 -77 89 -109 80 -41 99 -34 121 49 11 43 11 49 -5 57 -38 22
-146 120 -152 139 -5 17 -15 20 -68 19 -34 0 -68 -3 -74 -6z"/>
<path d="M6725 7790 c-31 -21 -65 -73 -65 -101 0 -23 53 -66 98 -80 48 -14 82
-1 117 46 26 33 27 38 16 76 -21 71 -103 100 -166 59z"/>
<path d="M3420 7705 c-25 -13 -53 -24 -62 -25 -15 0 -18 -10 -18 -67 0 -92 5
-97 74 -89 64 8 149 59 154 91 3 22 -72 115 -91 115 -7 -1 -32 -12 -57 -25z"/>
<path d="M8035 7516 c-16 -8 -45 -28 -62 -46 -26 -26 -33 -41 -33 -72 0 -51
20 -96 59 -135 58 -58 148 -53 219 12 35 32 37 37 37 97 0 49 -5 70 -23 95
-39 55 -132 78 -197 49z"/>
<path d="M6008 7477 c-102 -85 -84 -234 33 -267 73 -21 154 33 180 120 11 37
10 46 -9 86 -12 25 -36 53 -54 64 -46 28 -115 27 -150 -3z"/>
<path d="M8614 7385 c-16 -7 -34 -23 -41 -37 -11 -25 -7 -39 48 -138 14 -25
31 -61 39 -80 8 -19 44 -98 80 -175 73 -153 162 -408 205 -580 57 -231 65
-274 80 -400 8 -71 16 -148 19 -170 23 -193 17 -427 -20 -765 -28 -265 -108
-591 -184 -755 -10 -22 -37 -89 -61 -150 -37 -96 -165 -366 -243 -509 -37 -70
-35 -101 11 -125 64 -33 77 -18 247 285 110 196 255 582 306 811 12 54 33 148
46 208 44 193 80 611 69 800 -21 372 -56 587 -151 930 -42 154 -84 267 -179
489 -83 196 -138 297 -182 337 -38 35 -54 39 -89 24z"/>
<path d="M2021 7264 c-58 -48 -270 -521 -330 -734 -67 -241 -91 -358 -121
-587 -58 -440 -21 -1014 91 -1418 86 -311 153 -475 337 -830 66 -127 84 -140
148 -109 30 15 41 27 48 55 10 41 10 41 -82 201 -34 58 -77 141 -96 185 -18
43 -54 127 -80 187 -54 124 -95 247 -120 356 -9 41 -21 89 -26 105 -13 45 -38
191 -63 375 -18 129 -23 221 -25 425 -3 258 4 351 42 605 21 144 105 442 170
605 20 50 51 126 68 170 18 44 62 140 100 214 37 73 68 144 68 157 0 27 -43
64 -76 64 -12 0 -36 -12 -53 -26z"/>
<path d="M5445 7252 c-63 -30 -83 -97 -49 -168 37 -77 108 -94 179 -43 78 56
97 134 47 190 -24 27 -37 33 -83 36 -38 3 -66 -2 -94 -15z"/>
<path d="M4256 6789 c-47 -40 -66 -78 -66 -126 0 -67 69 -143 130 -143 12 0
41 5 65 11 36 9 50 20 75 57 33 50 38 93 16 146 -8 18 -23 40 -35 48 -11 8
-19 17 -16 20 6 6 -3 7 -76 14 -53 5 -59 4 -93 -27z"/>
<path d="M3633 6498 c-52 -37 -85 -96 -80 -141 19 -147 227 -173 282 -35 23
59 13 99 -39 153 -38 40 -47 45 -87 45 -30 0 -55 -7 -76 -22z"/>
<path d="M9615 6491 c-47 -29 -69 -59 -67 -91 2 -29 -42 -95 -58 -85 -14 8
-22 -52 -15 -105 6 -40 14 -56 46 -85 22 -20 51 -40 65 -45 61 -24 131 -2 194
58 l48 47 1 105 c0 58 -4 116 -10 130 -5 14 -31 40 -57 58 -55 37 -102 41
-147 13z"/>
<path d="M3015 6131 c-42 -25 -82 -74 -90 -110 -16 -74 63 -167 140 -165 161
4 215 210 71 275 -52 24 -83 24 -121 0z"/>
<path d="M8662 5901 c-26 -24 -32 -38 -32 -70 0 -48 26 -71 81 -71 79 0 112
67 69 138 -27 43 -72 44 -118 3z"/>
<path d="M9521 5594 c-44 -56 -14 -114 59 -116 62 -2 86 68 40 117 -31 33 -72
33 -99 -1z"/>
<path d="M1274 4205 c-42 -19 -101 -86 -113 -129 -20 -73 19 -134 102 -162 87
-29 159 -3 222 81 21 28 22 33 10 78 -14 56 -54 102 -110 128 -47 22 -69 22
-111 4z"/>
<path d="M9280 3943 c-30 -16 -35 -24 -38 -58 -6 -84 86 -118 149 -56 35 35
37 70 6 99 -33 31 -75 36 -117 15z"/>
<path d="M7735 3681 c-55 -15 -131 -38 -170 -50 -67 -22 -83 -23 -343 -22
l-272 2 -30 -30 c-29 -29 -30 -32 -30 -125 l0 -95 -32 10 c-55 15 -358 11
-414 -6 -33 -10 -67 -13 -102 -9 -45 5 -55 4 -67 -12 -12 -17 -30 -19 -213
-19 l-200 0 -7 69 c-6 61 -10 73 -45 110 l-39 41 -179 3 c-108 2 -195 -1 -219
-7 -63 -17 -130 -74 -143 -120 -7 -26 -11 -304 -11 -806 0 -762 0 -766 21
-802 11 -19 20 -37 18 -38 -2 -1 -85 0 -185 3 l-182 5 14 21 c18 25 19 70 3
84 -7 5 -32 13 -56 17 -47 8 -51 11 -90 71 -15 23 -43 66 -63 95 -70 107 -74
184 -13 286 46 75 70 100 141 137 65 35 103 83 103 132 0 45 -20 54 -116 48
l-79 -4 45 14 c49 17 74 47 85 106 9 53 -10 72 -79 78 l-57 5 -38 76 c-21 42
-44 104 -51 138 -11 55 -11 68 4 107 29 76 70 124 118 136 59 17 108 68 108
115 0 50 -15 74 -58 93 -34 15 -132 17 -1083 20 -1036 3 -1047 2 -1102 -18
-78 -29 -128 -69 -180 -142 -57 -80 -79 -142 -84 -243 -5 -87 12 -177 49 -249
28 -55 153 -177 206 -200 l42 -19 -63 -38 c-160 -96 -257 -268 -257 -456 0
-154 50 -275 151 -366 l57 -52 -387 0 c-431 0 -418 2 -456 -69 l-20 -36 27
-26 26 -27 3508 2 c3113 1 3510 3 3531 16 35 23 40 61 12 92 -54 57 -56 57
-410 56 -180 0 -332 3 -339 7 -8 5 7 14 41 25 90 30 150 64 200 117 53 56 57
72 35 140 -8 24 -27 108 -41 188 -15 80 -29 148 -32 153 -2 4 -19 74 -38 155
-34 152 -65 274 -90 352 -8 25 -19 74 -25 110 -6 36 -29 144 -51 240 -93 403
-92 400 -144 424 -41 20 -38 20 -160 -13z m117 -242 c15 -57 28 -111 30 -119
2 -11 -25 -21 -117 -42 -134 -30 -161 -33 -171 -17 -3 6 -15 46 -24 88 -10 42
-21 86 -25 98 -9 29 24 45 135 68 46 9 93 21 105 25 11 5 25 7 30 6 6 -1 22
-49 37 -107z m-503 12 c10 -15 22 -173 14 -181 -2 -3 -77 -7 -165 -9 l-161 -3
6 88 c4 49 7 94 7 101 0 17 40 21 173 19 84 -2 121 -6 126 -15z m-4599 -25 c0
-2 -16 -24 -37 -48 -57 -67 -86 -141 -91 -228 -5 -97 20 -165 93 -258 30 -37
54 -71 54 -77 0 -14 -37 -7 -81 16 -93 47 -156 151 -165 272 -10 136 43 245
146 299 48 25 81 35 81 24z m2923 -31 c24 -6 24 -9 30 -148 4 -78 9 -156 13
-173 5 -29 3 -32 -27 -43 -18 -6 -94 -11 -175 -11 l-144 0 0 163 c0 177 4 204
29 210 28 7 248 8 274 2z m-1735 -16 l642 -1 -38 -43 c-50 -56 -72 -126 -72
-224 0 -94 19 -163 61 -221 l31 -43 -228 9 c-126 4 -305 6 -399 4 -376 -11
-1014 -2 -1041 13 -61 34 -144 184 -144 260 0 67 30 123 100 192 l71 68 187
-7 c103 -3 476 -6 830 -7z m2868 -754 c0 -341 -2 -651 -5 -690 -6 -65 -8 -71
-35 -84 -43 -20 -153 -25 -200 -9 -67 22 -72 45 -85 338 -13 289 -14 576 -4
863 l6 196 111 4 c61 2 134 3 161 3 l50 -1 1 -620z m-536 508 l0 -58 -150 0
-150 0 0 52 0 52 93 4 c50 1 118 4 150 5 l57 2 0 -57z m1644 25 c2 -7 11 -58
21 -113 9 -55 27 -143 40 -195 12 -52 46 -194 74 -315 29 -121 66 -282 84
-358 l33 -138 -23 -19 c-34 -27 -146 -62 -185 -58 -23 2 -38 12 -54 35 -23 34
-73 211 -109 388 -57 272 -115 536 -135 608 -33 121 -36 117 105 149 142 31
145 32 149 16z m-564 -657 c0 -563 -2 -621 -17 -636 -27 -27 -60 -35 -148 -35
-74 0 -87 3 -112 24 l-28 24 -9 606 c-4 334 -5 613 -2 621 4 12 33 15 161 15
l155 0 0 -619z m210 220 c52 -264 85 -407 135 -596 62 -235 75 -267 129 -312
l34 -28 -198 -3 -199 -2 15 29 c12 25 15 119 15 612 0 320 4 578 8 573 5 -5
32 -128 61 -273z m-1300 202 c3 -3 5 -236 5 -519 l0 -514 -28 -27 c-24 -25
-36 -28 -105 -31 -72 -4 -81 -2 -109 22 -42 35 -44 61 -33 416 6 196 6 346 0
424 -6 66 -7 149 -4 184 l7 64 131 -7 c72 -4 133 -9 136 -12z m-545 -95 c-4
-35 -9 -255 -11 -490 -4 -472 -4 -472 -67 -504 -40 -21 -164 -24 -199 -5 -57
30 -58 33 -63 485 -4 386 -3 416 13 417 15 1 15 2 0 6 -15 4 -18 16 -18 72 0
37 3 71 7 74 3 4 83 7 176 7 l170 0 -8 -62z m-1390 -147 l90 -6 -93 -8 c-103
-9 -342 1 -342 14 0 10 210 10 345 0z m-705 -11 c-36 -12 -98 -12 -105 0 -4 6
19 10 62 9 49 -1 61 -3 43 -9z m-830 -125 c0 -2 -29 -33 -63 -68 -68 -68 -92
-115 -107 -217 -16 -111 35 -271 113 -354 21 -22 35 -41 32 -44 -12 -12 -137
62 -172 102 -66 75 -98 222 -74 338 14 64 75 167 117 194 43 29 154 64 154 49z
m1792 -45 c-2 -8 -19 -39 -37 -70 -43 -70 -56 -130 -56 -253 l0 -99 -118 7
c-142 9 -161 2 -161 -53 0 -21 5 -43 12 -50 15 -15 77 -16 114 -2 17 7 60 8
113 4 83 -7 87 -8 131 -50 24 -23 42 -45 39 -48 -3 -3 -368 -6 -812 -7 l-807
-1 -47 23 c-27 13 -71 47 -100 76 -58 59 -83 123 -91 231 -4 55 -1 70 27 127
43 87 134 167 200 175 25 3 395 5 821 5 676 0 775 -2 772 -15z m1278 -705 l23
-25 -41 0 c-45 0 -47 2 -32 31 14 25 22 24 50 -6z"/>
<path d="M3725 3147 c-10 -5 -15 -24 -15 -52 l0 -43 93 -7 c50 -4 202 -8 337
-8 l245 -2 -1 43 c-2 77 7 76 -339 76 -168 1 -313 -2 -320 -7z"/>
<path d="M2943 3130 c-17 -7 -23 -17 -23 -42 0 -57 9 -62 119 -66 56 -2 120
-1 143 2 40 6 43 9 45 41 2 19 4 40 5 47 2 7 -14 15 -37 19 -55 11 -225 10
-252 -1z"/>
<path d="M3369 3131 c-87 -7 -109 -20 -109 -66 0 -29 4 -35 33 -44 43 -13 278
-13 294 1 20 16 16 75 -7 98 -21 21 -52 23 -211 11z"/>
<path d="M7922 2281 c-64 -25 -83 -69 -41 -91 26 -14 132 -15 158 -1 42 23 50
38 38 76 -10 34 -11 35 -61 34 -28 -1 -70 -9 -94 -18z"/>
<path d="M7148 2083 c-36 -6 -56 -35 -50 -74 5 -37 31 -49 107 -49 79 0 85 4
85 60 0 27 -4 52 -10 55 -14 8 -100 14 -132 8z"/>
<path d="M5428 2068 c-3 -18 -3 -48 -1 -66 l5 -33 112 3 111 3 3 53 c3 48 1
53 -23 62 -15 6 -66 10 -114 10 l-88 0 -5 -32z"/>
<path d="M3180 2331 l-214 -6 -13 -25 c-19 -37 -16 -68 8 -80 24 -13 448 -20
490 -8 22 7 27 15 33 55 3 26 2 51 -3 56 -13 13 -63 14 -301 8z"/>
<path d="M3600 2310 c-27 -27 -27 -85 0 -100 22 -12 648 -15 733 -4 34 5 47
11 47 23 0 9 3 26 6 38 4 14 -1 28 -15 42 -21 21 -29 21 -386 21 -352 0 -366
-1 -385 -20z"/>
<path d="M2969 2073 c-12 -32 -4 -89 13 -100 7 -3 140 -9 296 -11 l283 -4 -3
64 -3 63 -90 6 c-49 4 -179 7 -288 8 l-197 1 -11 -27z"/>
<path d="M3717 2086 c-11 -12 -17 -33 -17 -65 l0 -48 53 -7 c67 -8 201 -8 221
0 12 5 16 20 16 59 0 30 -4 57 -10 60 -5 3 -63 9 -128 12 -103 5 -120 4 -135
-11z"/>
<path d="M1331 3554 c-43 -36 -42 -75 3 -120 48 -48 83 -46 130 6 20 22 36 44
36 49 0 10 -39 62 -60 78 -26 21 -76 15 -109 -13z"/>
<path d="M1680 3538 c-52 -26 -57 -41 -40 -115 12 -58 51 -113 79 -113 16 0
89 66 83 76 -1 2 3 22 9 44 15 49 0 83 -46 112 -37 22 -32 22 -85 -4z"/>
<path d="M8432 3457 c-34 -19 -82 -97 -82 -133 0 -42 21 -58 66 -51 44 7 69
29 96 80 22 44 17 68 -19 97 -30 23 -31 23 -61 7z"/>
<path d="M8795 2783 c-38 -11 -66 -36 -108 -102 -24 -36 -47 -74 -51 -85 -12
-34 13 -92 66 -150 47 -52 58 -59 101 -63 73 -9 129 17 179 83 50 67 69 119
56 154 -15 39 -74 110 -114 138 -36 24 -92 35 -129 25z m64 -180 c12 -23 -4
-53 -29 -53 -15 0 -20 7 -20 28 0 44 29 59 49 25z"/>
<path d="M3956 1470 c-16 -5 -39 -19 -52 -31 l-24 -23 32 -33 c17 -18 50 -39
72 -48 23 -8 88 -32 146 -54 121 -45 340 -100 500 -125 14 -3 63 -11 110 -20
343 -62 838 -60 1135 5 50 10 133 26 185 34 131 21 393 91 451 120 26 14 82
34 126 45 94 26 134 44 162 74 l21 23 -81 11 c-45 7 -86 9 -91 6 -6 -4 -62 -8
-127 -9 -109 -2 -122 -5 -218 -43 -103 -41 -270 -82 -443 -108 -52 -8 -124
-19 -160 -25 -175 -29 -672 -17 -907 21 -117 20 -333 71 -445 106 -131 41
-309 84 -340 83 -13 0 -36 -5 -52 -9z"/>
</g>
</svg>
