<?xml version="1.0" standalone="no"?>
<!DOCTYPE svg PUBLIC "-//W3C//DTD SVG 20010904//EN"
 "http://www.w3.org/TR/2001/REC-SVG-20010904/DTD/svg10.dtd">
<svg version="1.0" xmlns="http://www.w3.org/2000/svg"
 width="1024.000000pt" height="1024.000000pt" viewBox="0 0 1024.000000 1024.000000"
 preserveAspectRatio="xMidYMid meet">

<g transform="translate(0.000000,1024.000000) scale(0.100000,-0.100000)"
fill="#000000" stroke="none">
<path d="M3959 8466 c-2 -2 -49 -6 -104 -10 -177 -11 -369 -64 -567 -154 -47
-22 -135 -61 -196 -86 -60 -26 -130 -60 -156 -77 l-48 -30 3 -86 3 -86 -44
-12 c-25 -6 -96 -31 -158 -55 -112 -43 -187 -93 -213 -142 -8 -14 -11 -450
-11 -1454 l-1 -1434 27 -35 c55 -71 113 -81 248 -40 216 66 320 101 408 138
239 99 303 121 517 172 218 53 234 55 363 55 149 0 204 -10 327 -62 66 -27 92
-47 200 -149 252 -239 354 -292 588 -305 158 -9 255 11 404 84 113 54 119 59
257 198 181 182 253 221 454 244 141 16 371 -24 600 -105 188 -66 396 -144
469 -174 94 -40 235 -84 334 -106 73 -16 81 -16 122 0 24 9 58 32 74 51 49 56
54 91 42 328 -6 116 -14 742 -17 1391 -6 1123 -7 1181 -24 1210 -47 76 -130
124 -329 190 l-53 17 7 59 c11 97 -3 122 -90 164 -41 19 -77 35 -80 35 -3 0
-54 22 -113 49 -168 76 -378 152 -477 171 -378 75 -686 62 -970 -42 -194 -71
-330 -153 -484 -290 l-83 -75 -70 68 c-90 88 -206 169 -327 229 -151 75 -301
118 -504 145 -105 13 -317 21 -328 11z m312 -230 c155 -21 269 -55 414 -125
129 -62 237 -144 344 -262 l54 -60 4 -1015 c3 -557 1 -1014 -4 -1014 -4 0 -31
16 -58 36 -138 98 -413 229 -555 264 -213 53 -546 62 -738 21 -106 -22 -296
-89 -485 -168 -71 -30 -132 -51 -135 -48 -4 4 -8 479 -10 1056 l-4 1050 157
75 c205 98 287 130 410 160 180 43 418 55 606 30z m2145 4 c248 -21 438 -76
737 -217 l97 -46 0 -526 c0 -289 2 -766 3 -1059 1 -292 -1 -532 -4 -532 -9 0
-124 47 -258 107 -237 104 -480 149 -770 140 -147 -4 -178 -8 -271 -35 -213
-62 -374 -139 -545 -261 -54 -39 -102 -71 -106 -71 -14 0 -20 373 -17 1193 l3
858 47 58 c92 114 276 241 448 309 130 51 292 82 476 91 17 0 89 -4 160 -9z
m-3536 -1370 c0 -441 -5 -945 -11 -1121 -6 -177 -8 -323 -6 -326 11 -10 110
51 197 120 60 49 140 99 229 145 309 159 484 205 776 204 246 -1 348 -23 558
-119 182 -83 305 -172 392 -283 47 -59 180 -180 199 -180 7 0 39 33 70 74 72
93 250 266 324 313 85 55 249 129 345 157 217 63 505 57 755 -15 121 -34 385
-159 533 -251 112 -69 226 -124 237 -113 4 4 5 484 3 1068 -2 584 -1 1076 3
1094 l7 32 62 -34 61 -34 3 -1157 c2 -637 2 -1163 -1 -1170 -4 -10 -33 -1
-108 32 -202 90 -190 83 -184 109 11 45 -68 94 -385 238 -215 98 -281 116
-494 128 -286 17 -438 -10 -655 -117 -126 -63 -141 -74 -231 -163 -91 -91
-129 -144 -142 -202 -12 -47 -63 -105 -118 -133 -95 -47 -174 -32 -279 53
-124 100 -216 149 -375 202 -143 46 -327 79 -450 79 -98 0 -419 -27 -495 -41
-30 -6 -114 -26 -186 -44 -160 -41 -219 -52 -354 -64 -106 -10 -131 -17 -319
-90 -58 -23 -107 -38 -110 -35 -3 3 -7 537 -9 1188 l-3 1181 72 38 c39 20 75
37 80 37 5 0 9 -349 9 -800z m3607 -1280 c161 -12 280 -33 376 -64 39 -13 153
-50 252 -82 177 -58 179 -59 135 -66 -50 -7 -246 21 -373 53 -124 31 -296 50
-516 55 -238 5 -362 -7 -574 -60 -75 -18 -140 -29 -143 -25 -9 15 48 59 122
94 202 93 401 119 721 95z m-564 -325 c-58 -29 -101 -63 -215 -172 -79 -75
-164 -153 -189 -173 -96 -76 -306 -119 -438 -90 -116 26 -206 88 -401 277
-130 127 -134 131 -108 138 43 11 159 -51 253 -136 44 -40 106 -89 137 -109
118 -77 253 -89 402 -35 68 25 87 37 140 93 67 70 159 143 218 173 47 24 202
67 243 68 25 1 18 -5 -42 -34z"/>
<path d="M3835 7880 c-222 -39 -448 -115 -532 -177 -29 -21 -33 -29 -33 -73 0
-37 6 -56 23 -76 l24 -27 159 57 c87 32 209 70 269 84 102 25 126 27 335 26
212 0 231 -2 323 -26 53 -15 167 -56 251 -92 85 -37 161 -66 170 -66 31 0 56
37 56 84 0 63 -36 95 -195 173 -135 66 -253 102 -399 122 -117 16 -335 12
-451 -9z"/>
<path d="M3860 7559 c-143 -18 -318 -73 -471 -150 -114 -56 -137 -96 -105
-174 13 -29 20 -35 46 -35 17 0 57 12 88 26 83 39 261 101 339 119 37 9 133
20 213 24 286 17 506 -26 742 -145 39 -20 83 -34 103 -34 32 0 38 4 51 37 37
87 -13 145 -195 222 -139 58 -290 98 -421 111 -112 11 -298 11 -390 -1z"/>
<path d="M3840 7225 c-95 -16 -222 -50 -280 -76 -25 -11 -79 -34 -120 -50 -41
-16 -93 -42 -115 -57 -35 -25 -40 -33 -43 -73 -3 -48 25 -99 54 -99 8 0 56 17
107 38 107 45 267 96 352 112 33 6 150 14 260 17 164 5 215 3 283 -11 84 -17
242 -70 369 -125 89 -38 127 -40 149 -6 24 37 22 90 -5 119 -48 51 -253 142
-410 181 -175 44 -439 58 -601 30z"/>
<path d="M3885 6893 c-181 -17 -511 -124 -587 -191 -26 -22 -24 -92 3 -126 26
-34 50 -33 128 4 73 35 286 102 382 121 84 17 434 17 515 1 91 -18 297 -88
397 -133 83 -39 89 -40 112 -25 13 9 29 32 34 52 27 98 -59 158 -343 240 -175
51 -267 64 -446 62 -85 -1 -173 -3 -195 -5z"/>
<path d="M3885 6573 c-153 -20 -385 -87 -510 -149 -80 -38 -99 -63 -93 -119
10 -85 52 -104 136 -61 75 38 210 82 320 105 128 27 388 38 523 22 125 -14
318 -70 441 -127 54 -25 105 -44 114 -42 24 4 54 48 60 89 5 28 1 41 -20 66
-61 73 -329 177 -538 208 -89 14 -353 18 -433 8z"/>
<path d="M5988 7870 c-180 -40 -379 -124 -450 -191 -43 -40 -49 -74 -24 -134
20 -46 48 -46 130 0 129 72 299 127 426 139 30 3 87 8 125 11 103 10 335 -11
450 -39 55 -14 157 -47 226 -75 70 -28 138 -51 152 -51 37 0 52 25 52 88 0 53
-2 57 -41 87 -55 42 -220 108 -369 146 -115 31 -129 32 -355 35 -202 3 -247 0
-322 -16z"/>
<path d="M6104 7560 c-186 -20 -476 -127 -561 -207 -29 -28 -33 -37 -33 -85 0
-42 5 -59 19 -72 23 -21 38 -17 125 26 82 41 286 112 371 129 48 10 137 14
285 13 196 -1 223 -4 305 -26 94 -27 273 -90 361 -129 29 -12 59 -19 67 -16
18 7 37 66 37 114 0 45 -46 80 -183 137 -250 107 -515 145 -793 116z"/>
<path d="M5975 7206 c-195 -50 -393 -135 -446 -192 -32 -34 -31 -95 1 -130 13
-13 30 -24 38 -24 8 0 47 16 86 36 104 54 312 121 412 135 53 7 163 9 283 7
192 -5 199 -6 316 -42 66 -21 171 -58 234 -82 71 -29 122 -43 136 -40 26 7 45
50 45 102 0 48 -49 83 -199 142 -248 99 -366 122 -610 122 -155 -1 -175 -3
-296 -34z"/>
<path d="M6120 6903 c-76 -8 -191 -38 -322 -84 -148 -52 -205 -78 -255 -116
-29 -21 -33 -30 -33 -71 0 -58 21 -92 57 -92 14 0 58 18 97 39 82 45 252 104
352 123 91 17 437 17 526 0 90 -17 237 -63 358 -112 127 -51 146 -51 166 -4 8
20 14 52 12 72 -2 29 -11 42 -43 64 -88 62 -396 158 -567 177 -91 10 -269 12
-348 4z"/>
<path d="M6140 6579 c-134 -14 -225 -37 -365 -91 -235 -92 -265 -113 -265
-186 0 -96 43 -113 151 -62 150 69 379 136 500 145 210 16 528 -42 751 -137
53 -22 104 -38 112 -35 46 18 73 128 40 161 -63 64 -347 164 -554 196 -100 15
-276 20 -370 9z"/>
<path d="M3933 5780 c-170 -14 -347 -62 -483 -130 -30 -15 -106 -49 -168 -75
-119 -50 -187 -99 -180 -132 3 -13 12 -18 36 -16 42 1 193 42 350 94 129 42
408 88 538 89 156 0 401 -42 594 -102 74 -23 230 -108 275 -149 36 -33 85 -49
85 -27 0 27 -101 167 -153 213 -32 29 -109 74 -202 120 -165 82 -217 96 -415
114 -125 12 -140 12 -277 1z"/>
<path d="M5605 4529 c-77 -5 -203 -13 -280 -18 -103 -8 -180 -7 -290 2 -187
15 -1575 13 -1708 -3 -108 -13 -169 -36 -274 -106 -149 -99 -225 -219 -259
-409 -17 -97 -19 -403 -3 -561 24 -242 110 -397 279 -508 68 -44 124 -70 175
-81 44 -10 3608 -6 3747 4 104 7 126 12 190 43 189 91 309 238 338 418 8 46
13 186 14 365 1 290 1 290 -27 375 -34 106 -69 174 -127 246 -85 107 -238 193
-376 214 -123 18 -1163 32 -1399 19z m1284 -218 c89 -8 113 -14 178 -46 146
-72 220 -174 243 -333 16 -108 12 -537 -4 -600 -31 -115 -119 -220 -226 -271
l-55 -26 -960 -2 c-528 -1 -1358 -3 -1845 -5 -987 -3 -901 -9 -1016 67 -81 54
-130 124 -171 242 -25 74 -26 91 -31 313 -5 253 4 349 39 431 34 78 162 185
254 211 22 6 155 14 295 18 388 10 3181 10 3299 1z"/>
<path d="M3521 4077 c-34 -17 -43 -57 -36 -154 6 -87 1 -97 -31 -62 -10 11
-51 41 -91 66 -83 51 -86 51 -129 -23 -32 -55 -27 -63 87 -138 49 -33 88 -64
86 -70 -3 -6 -10 -10 -16 -8 -7 1 -45 5 -85 8 -115 10 -166 -18 -166 -89 1
-53 42 -69 154 -62 l81 6 -41 -38 c-23 -21 -58 -57 -78 -80 -36 -41 -37 -42
-22 -71 17 -34 61 -72 82 -72 8 0 48 32 89 71 l75 72 0 -105 c0 -67 4 -108 12
-116 18 -18 123 -15 138 3 9 11 11 41 8 105 -3 50 -4 90 -1 90 2 0 37 -31 78
-70 42 -40 83 -70 94 -70 12 0 35 13 53 28 23 22 31 37 31 63 0 29 -11 44 -93
121 l-93 87 7 57 c3 31 10 62 14 69 8 14 92 84 151 125 47 34 50 59 11 104
-46 52 -81 50 -163 -13 l-64 -50 -5 95 c-4 72 -10 99 -23 114 -21 23 -77 27
-114 7z"/>
<path d="M5273 4060 l-23 -9 0 -385 c0 -336 2 -387 16 -400 19 -19 124 -22
142 -4 15 15 17 764 3 787 -11 17 -106 25 -138 11z"/>
<path d="M4488 4053 c-9 -2 -19 -16 -23 -31 -7 -29 2 -648 11 -719 5 -39 8
-43 42 -53 51 -14 85 -13 108 4 18 14 19 28 15 398 -2 239 -7 388 -13 396 -10
11 -102 15 -140 5z"/>
<path d="M4860 4034 c-6 -15 -10 -177 -10 -389 0 -421 -6 -395 96 -395 60 0
65 2 74 26 6 15 10 173 10 379 0 206 -4 364 -10 379 -9 25 -14 26 -80 26 -66
0 -71 -1 -80 -26z"/>
<path d="M5645 4046 c-18 -13 -20 -34 -23 -364 -3 -193 -1 -367 2 -386 7 -39
22 -47 87 -48 76 -1 73 -14 79 400 6 426 9 412 -73 412 -30 0 -62 -6 -72 -14z"/>
<path d="M6011 4052 c-17 -5 -28 -18 -34 -42 -5 -19 -7 -194 -5 -388 3 -400
-1 -382 84 -382 55 0 74 8 84 35 10 26 17 762 7 772 -10 10 -108 13 -136 5z"/>
<path d="M6360 4050 c-13 -8 -15 -65 -18 -392 -1 -219 2 -389 7 -397 14 -22
115 -27 146 -7 l25 16 0 376 c0 240 -4 382 -10 395 -9 16 -22 19 -73 19 -34 0
-69 -5 -77 -10z"/>
<path d="M6934 4053 c-43 -8 -56 -37 -76 -170 -15 -99 -18 -157 -14 -258 14
-310 21 -359 55 -369 20 -7 90 9 104 23 13 13 33 750 20 761 -11 10 -63 17
-89 13z"/>
<path d="M6703 4033 c-7 -2 -13 -9 -13 -14 0 -12 97 -12 104 0 10 16 -61 27
-91 14z"/>
<path d="M3740 3690 c-12 -7 -13 -18 -2 -66 6 -32 16 -62 22 -68 6 -6 55 -12
109 -14 90 -4 101 -2 120 17 15 15 20 29 16 46 -3 14 -7 36 -10 50 -3 15 -16
30 -31 35 -32 13 -204 13 -224 0z"/>
</g>
</svg>
