<?xml version="1.0" standalone="no"?>
<!DOCTYPE svg PUBLIC "-//W3C//DTD SVG 20010904//EN"
 "http://www.w3.org/TR/2001/REC-SVG-20010904/DTD/svg10.dtd">
<svg version="1.0" xmlns="http://www.w3.org/2000/svg"
 width="1024.000000pt" height="1024.000000pt" viewBox="0 0 1024.000000 1024.000000"
 preserveAspectRatio="xMidYMid meet">

<g transform="translate(0.000000,1024.000000) scale(0.100000,-0.100000)"
fill="#000000" stroke="none">
<path d="M4655 8780 l-790 -5 -99 -37 c-159 -60 -305 -168 -428 -317 -112
-135 -180 -291 -207 -476 -13 -88 -18 -665 -7 -765 7 -64 5 -88 -14 -160 -26
-97 -26 -142 -3 -220 15 -50 17 -195 17 -1580 l1 -1525 43 -125 c47 -137 98
-226 190 -335 72 -86 140 -139 252 -199 114 -60 191 -84 306 -96 104 -11 2169
-14 2534 -4 242 7 296 17 450 83 115 50 204 116 316 234 73 76 95 108 135 192
27 55 61 143 76 195 l27 95 3 2060 c2 2038 2 2061 -18 2163 -25 124 -51 206
-91 287 -98 196 -245 348 -423 437 -232 117 -120 112 -2270 98z m2062 -257
c34 -13 96 -44 138 -69 181 -110 296 -269 346 -480 19 -80 19 -126 17 -2146
l-3 -2063 -23 -73 c-36 -118 -107 -241 -191 -335 -50 -55 -166 -130 -260 -166
l-78 -30 -1399 -3 -1399 -3 -58 22 c-169 64 -300 191 -396 381 -65 128 -60
-21 -64 2227 -2 1128 0 2089 4 2136 14 144 96 318 198 420 106 105 257 185
386 202 17 2 635 4 1375 3 l1345 -1 62 -22z"/>
<path d="M3926 8349 c-98 -23 -225 -121 -296 -228 -16 -24 -38 -78 -49 -120
-20 -74 -20 -107 -25 -1561 -2 -817 -1 -1650 3 -1851 l6 -366 40 -79 c26 -52
60 -100 100 -140 106 -107 -37 -98 1580 -98 l1400 -1 66 32 c89 44 169 129
217 230 l36 78 6 195 c4 107 5 934 4 1837 -1 1268 -5 1655 -14 1695 -18 77
-51 145 -103 214 -52 70 -111 115 -195 147 l-57 22 -1340 2 c-787 1 -1356 -3
-1379 -8z m452 -833 l2 -348 -98 4 c-84 3 -104 7 -143 30 -89 52 -160 157
-174 258 -8 58 10 171 36 222 60 117 189 190 329 185 l45 -2 3 -349z m416 323
c3 -17 6 -173 6 -345 l0 -314 -105 0 -105 0 -1 128 c-1 70 -3 222 -4 337 -2
148 1 212 9 217 6 4 52 8 102 8 l92 0 6 -31z m1572 18 c176 -2 194 -4 214 -22
34 -31 42 -61 25 -95 -8 -16 -20 -32 -26 -36 -7 -4 -322 -8 -700 -9 -379 0
-691 -4 -694 -7 -3 -3 -6 -28 -8 -57 l-2 -52 622 -2 c615 -2 622 -2 650 -23
36 -28 38 -70 3 -95 -41 -30 -216 -39 -758 -39 -393 0 -503 -3 -506 -12 -12
-38 -14 -65 -7 -76 7 -11 127 -12 692 -4 376 5 691 5 700 1 9 -5 22 -23 29
-40 16 -37 3 -69 -40 -100 -24 -18 -62 -19 -645 -22 -341 -2 -685 -1 -765 2
l-145 6 -7 155 c-7 134 5 511 16 529 4 5 879 5 1352 -2z m-1984 -919 c4 -40 4
-306 0 -541 l-2 -99 -88 4 c-79 3 -93 6 -146 38 -121 72 -184 190 -173 325 9
101 23 141 70 192 73 80 167 121 278 122 l57 1 4 -42z m404 7 c3 -19 7 -169 8
-332 l1 -298 -102 -3 -103 -3 0 233 c0 128 -3 276 -7 330 -7 112 -15 104 119
107 l77 1 7 -35z m1767 7 c43 -28 57 -49 57 -91 0 -62 25 -60 -739 -60 -382 0
-698 -4 -701 -8 -13 -14 -19 -58 -11 -71 6 -10 138 -13 632 -12 671 0 659 1
688 -52 14 -25 14 -29 -8 -51 -12 -14 -35 -28 -49 -32 -15 -4 -296 -10 -625
-14 -646 -7 -616 -4 -617 -58 0 -22 3 -23 108 -23 59 -1 370 -2 692 -2 l585
-2 22 -22 c23 -23 30 -65 17 -99 -4 -9 -24 -25 -45 -35 -37 -19 -63 -20 -762
-20 -399 0 -738 3 -755 6 -19 4 -32 14 -36 28 -14 51 -18 319 -7 451 18 207
-2 184 170 188 80 2 416 3 746 3 l600 -1 38 -23z m-2167 -879 c8 -43 -3 -633
-12 -642 -3 -3 -40 -6 -82 -5 -62 1 -87 6 -127 26 -53 27 -115 88 -152 148
-42 70 -52 197 -23 308 16 61 83 137 151 171 55 28 72 31 150 31 l88 0 7 -37z
m409 -25 c3 -35 5 -187 3 -338 l-3 -275 -95 0 c-92 0 -94 1 -101 25 -9 31 -11
586 -3 617 6 20 13 23 93 26 47 1 89 4 93 5 3 1 9 -26 13 -60z m1765 37 c30
-18 35 -27 38 -61 2 -28 -3 -47 -15 -62 -17 -20 -29 -21 -298 -26 -154 -3
-462 -6 -685 -7 -263 0 -409 -4 -417 -11 -7 -6 -13 -29 -13 -53 l0 -42 613 3
c537 2 616 1 645 -13 45 -22 58 -48 38 -78 -39 -59 -26 -58 -680 -61 -630 -2
-615 -1 -616 -45 0 -9 7 -19 15 -23 8 -3 322 -6 697 -6 678 -2 683 -2 706 -23
47 -44 21 -119 -51 -146 -34 -13 -1495 -15 -1515 -2 -30 19 -35 464 -7 641 l6
35 752 0 c740 0 753 0 787 -20z m-2178 -927 c7 -89 1 -644 -7 -657 -3 -6 -36
-11 -73 -11 -87 0 -155 31 -222 101 -71 74 -102 143 -108 238 -6 105 11 177
56 242 68 96 167 147 293 148 l56 1 5 -62z m416 -295 l-3 -358 -82 -3 c-134
-5 -123 -38 -123 363 l0 344 28 4 c15 2 62 5 105 6 l77 1 -2 -357z m1700 331
c121 -13 157 -123 53 -166 -17 -8 -251 -13 -703 -16 l-678 -4 0 -48 c0 -41 4
-50 21 -55 11 -4 293 -7 625 -7 603 0 605 0 637 -22 43 -29 46 -59 10 -95 -26
-26 -37 -29 -126 -36 -53 -4 -331 -5 -618 -3 -506 3 -521 2 -535 -16 -8 -11
-14 -30 -14 -43 l0 -23 694 0 c686 0 694 0 720 -21 63 -50 6 -141 -96 -154
-75 -9 -1464 -2 -1474 8 -22 22 -21 522 1 671 l7 41 711 -3 c392 -1 736 -5
765 -8z"/>
<path d="M4188 7659 c-38 -15 -51 -62 -46 -174 4 -105 14 -125 64 -125 43 0
47 9 29 60 -22 62 -19 119 10 176 38 75 38 74 2 73 -18 0 -44 -5 -59 -10z"/>
<path d="M4181 6764 c-23 -16 -23 -20 -19 -125 5 -115 14 -139 54 -139 20 0
22 3 15 23 -5 13 -12 48 -16 78 -8 61 9 116 47 156 l21 23 -39 0 c-22 0 -50
-7 -63 -16z"/>
<path d="M4182 5900 c-19 -18 -22 -31 -22 -103 1 -93 12 -156 32 -168 17 -11
88 -12 88 -1 0 4 -9 25 -20 47 -24 47 -26 121 -5 172 24 57 20 73 -18 73 -20
0 -42 -8 -55 -20z"/>
<path d="M4203 5010 c-43 -17 -57 -78 -43 -185 11 -89 31 -132 65 -141 37 -9
47 3 29 37 -20 40 -29 121 -16 156 5 15 22 54 36 86 l26 57 -38 -1 c-20 0 -47
-4 -59 -9z"/>
<path d="M5205 3761 c-46 -11 -68 -26 -112 -74 -39 -42 -63 -96 -63 -142 0
-35 46 -119 83 -152 85 -74 215 -68 292 15 66 70 85 174 46 250 -24 48 -65 79
-128 98 -50 15 -71 16 -118 5z"/>
<path d="M7060 2616 c-276 -79 -492 -124 -710 -148 -193 -22 -242 -23 -860
-22 -735 1 -906 8 -1410 59 -231 23 -334 41 -575 100 -33 8 -80 14 -105 15
-106 0 -166 -95 -106 -167 41 -48 114 -80 271 -117 83 -19 170 -40 194 -46 45
-11 570 -61 836 -80 299 -21 979 -31 1275 -19 95 4 160 2 168 -4 7 -6 12 -6
12 0 0 5 80 17 178 27 422 41 892 147 1000 226 42 30 72 75 72 108 0 10 -11
28 -23 40 -44 42 -130 53 -217 28z"/>
</g>
</svg>
