<?xml version="1.0" standalone="no"?>
<!DOCTYPE svg PUBLIC "-//W3C//DTD SVG 20010904//EN"
 "http://www.w3.org/TR/2001/REC-SVG-20010904/DTD/svg10.dtd">
<svg version="1.0" xmlns="http://www.w3.org/2000/svg"
 width="1024.000000pt" height="1024.000000pt" viewBox="0 0 1024.000000 1024.000000"
 preserveAspectRatio="xMidYMid meet">

<g transform="translate(0.000000,1024.000000) scale(0.100000,-0.100000)"
fill="#000000" stroke="none">
<path d="M2820 9099 c-228 -24 -482 -145 -578 -275 -71 -95 -82 -140 -94 -378
-5 -116 -7 -321 -4 -456 4 -135 5 -1077 4 -2095 -2 -1017 -3 -1924 -2 -2015 0
-161 1 -166 28 -220 73 -142 158 -216 321 -279 188 -73 128 -71 1300 -55 358
5 760 5 895 1 362 -12 2790 0 2865 14 169 31 334 143 432 291 94 144 100 186
113 803 11 551 14 2562 5 3445 -7 620 -4 600 -86 674 -62 56 -136 92 -220 110
l-64 13 -10 124 c-6 68 -16 134 -23 146 -17 30 -93 87 -161 120 l-56 28 -1905
1 c-1048 0 -2078 3 -2290 6 -212 4 -423 2 -470 -3z m980 -304 c245 -2 1161 -4
2036 -4 l1591 -1 6 -37 c3 -21 9 -48 12 -60 6 -19 2 -22 -40 -29 -26 -3 -91
-4 -144 0 -106 7 -1782 8 -3031 1 -883 -5 -1245 -16 -1330 -39 -92 -26 -276
-13 -287 20 -6 19 35 61 83 83 51 24 173 57 262 71 32 4 134 6 227 4 94 -3
370 -7 615 -9z m-1365 -349 c108 -73 379 -105 611 -72 54 8 128 18 163 21 l64
7 -7 -233 c-4 -129 -9 -235 -10 -237 -5 -4 -106 -31 -181 -48 -98 -22 -299
-22 -400 0 -50 11 -119 37 -182 69 l-103 52 0 232 c0 128 2 233 5 233 2 0 20
-11 40 -24z m4801 -55 c14 -76 65 -207 104 -265 45 -71 82 -110 167 -184 34
-29 89 -87 122 -130 66 -86 152 -155 212 -174 l39 -11 2 -206 c1 -113 2 -246
2 -296 0 -49 -1 -642 -2 -1317 l-2 -1227 -74 -35 c-82 -38 -158 -101 -186
-156 -10 -19 -23 -75 -29 -125 -18 -140 -20 -144 -85 -215 -33 -37 -77 -85
-96 -107 -35 -41 -65 -54 -222 -97 -97 -27 -138 -79 -153 -191 -3 -28 -8 -61
-11 -76 l-5 -25 -1072 3 c-590 2 -1160 5 -1267 6 l-195 2 -3 30 c-6 72 -26
154 -52 211 -29 65 -50 81 -208 164 -66 35 -145 99 -163 131 -5 11 -12 66 -14
123 -2 58 -10 119 -18 138 -8 19 -48 68 -88 110 -81 83 -128 106 -192 94 -60
-11 -62 -19 -62 -225 -1 -217 -21 -626 -34 -690 -11 -54 -32 -71 -87 -71 -39
0 -42 2 -48 33 -5 27 -10 3339 -7 4467 l1 345 1860 1 1860 2 6 -37z m584 -225
c0 -134 -4 -237 -9 -241 -13 -7 -39 32 -51 76 -7 23 -30 55 -67 90 -142 134
-151 145 -172 214 -12 37 -21 73 -21 81 0 11 30 14 160 14 l160 0 0 -234z
m-5310 -493 c58 -19 157 -43 221 -54 l117 -20 173 27 c96 14 191 28 212 31
l37 5 0 -110 c0 -61 -3 -117 -6 -126 -4 -11 -19 -16 -48 -16 -23 0 -68 -7
-100 -15 -144 -38 -234 -45 -356 -31 -126 16 -195 36 -299 91 l-69 36 -6 87
c-4 48 -9 100 -13 116 -5 25 -3 28 13 21 11 -4 66 -23 124 -42z m-8 -587 c158
-62 260 -80 423 -73 89 3 153 12 202 26 40 12 88 21 107 21 l34 0 1 -1157 c1
-637 -2 -1163 -7 -1169 -18 -25 -220 -81 -380 -104 -136 -20 -244 5 -427 97
l-60 31 2 698 c3 774 -9 1629 -21 1657 -12 25 -2 22 126 -27z m-76 -2642 c82
-34 248 -65 384 -71 120 -5 179 -1 401 23 53 6 56 5 62 -17 3 -13 2 -73 -1
-134 l-7 -110 -30 -3 c-16 -1 -73 -10 -125 -20 -67 -12 -142 -17 -255 -16
-175 1 -234 10 -372 55 l-92 30 -5 42 c-11 89 -15 237 -7 237 5 0 26 -7 47
-16z m5395 -210 c10 -46 10 -231 -1 -322 -21 -184 -117 -261 -348 -277 -48 -3
-97 -8 -109 -11 -33 -6 -29 18 7 54 16 16 65 51 109 77 45 26 100 69 124 95
61 68 123 198 137 286 18 113 66 171 81 98z m-3913 -236 c79 -104 139 -161
237 -227 97 -64 100 -67 103 -107 l3 -41 -123 -6 c-128 -5 -271 3 -285 17 -10
10 -10 307 0 369 5 26 12 47 16 47 5 0 27 -24 49 -52z m-1308 -148 c124 -31
381 -39 521 -16 57 10 114 20 127 23 l22 5 0 -150 0 -150 -67 -9 c-95 -11
-465 -8 -543 6 -68 11 -171 58 -222 102 -30 24 -32 30 -39 125 -4 54 -10 107
-14 117 -7 15 0 15 61 -7 38 -14 107 -35 154 -46z"/>
<path d="M5545 8246 c-27 -14 -79 -43 -115 -65 -128 -78 -405 -224 -515 -271
-200 -86 -468 -154 -728 -184 -126 -14 -150 -25 -191 -80 -20 -27 -21 -39 -20
-319 2 -572 44 -916 156 -1282 63 -208 183 -477 287 -644 109 -175 263 -360
378 -452 280 -226 341 -265 553 -360 223 -100 272 -107 406 -63 83 28 286 126
351 171 21 14 79 53 128 86 359 240 633 596 825 1074 84 210 146 481 170 738
16 179 30 541 30 791 0 213 -1 222 -22 254 -36 53 -83 70 -261 96 -276 40
-528 109 -688 189 -139 70 -377 203 -441 246 -90 61 -172 99 -215 99 -21 0
-60 -11 -88 -24z m133 -284 c55 -38 332 -192 470 -261 275 -138 565 -221 769
-221 39 0 74 -3 76 -7 3 -5 1 -197 -3 -428 -11 -555 -28 -682 -123 -960 -87
-251 -173 -429 -312 -644 -116 -180 -375 -407 -625 -548 -61 -35 -229 -111
-274 -124 -88 -26 -451 168 -677 361 -178 152 -316 340 -450 610 -87 174 -130
288 -180 480 -90 340 -108 485 -116 936 l-6 322 99 7 c148 10 205 20 375 68
190 54 434 161 719 316 113 61 211 111 218 111 8 0 26 -8 40 -18z"/>
<path d="M5534 7560 c-127 -18 -186 -42 -292 -123 -59 -45 -123 -129 -170
-222 -54 -108 -62 -152 -62 -342 l0 -173 -36 0 c-51 0 -98 -25 -146 -79 -70
-80 -68 -58 -68 -584 l0 -473 39 -80 c43 -89 103 -152 179 -187 47 -22 50 -22
647 -22 571 0 602 1 638 19 61 30 134 108 167 178 l30 63 0 490 c0 472 -1 492
-21 535 -34 76 -100 129 -171 140 l-38 5 -4 175 c-6 252 -37 344 -164 481
-138 149 -339 225 -528 199z m211 -281 c103 -49 194 -176 214 -299 6 -36 11
-110 11 -166 l0 -101 -174 -6 c-95 -4 -256 -4 -356 0 l-183 6 5 162 c4 139 7
167 26 206 27 56 104 153 138 176 88 58 224 67 319 22z m-37 -945 c155 -64
190 -267 60 -350 -24 -16 -44 -29 -45 -29 -2 -1 6 -64 17 -141 35 -245 35
-244 -108 -244 -126 0 -146 10 -150 72 -2 25 4 96 12 157 23 160 22 164 -19
184 -19 9 -42 31 -52 49 -23 42 -23 151 -1 193 20 37 73 89 113 109 39 20 125
20 173 0z"/>
<path d="M2859 2718 c-21 -9 -42 -25 -48 -36 -18 -33 -13 -87 12 -122 33 -49
86 -72 186 -81 47 -4 503 -8 1014 -8 l927 -1 0 -68 c0 -43 8 -89 21 -127 12
-33 22 -84 23 -112 1 -47 4 -54 29 -64 24 -10 30 -9 49 10 18 20 21 40 27 184
l6 162 135 6 c74 4 283 7 463 8 l328 1 -3 -204 c-2 -112 -5 -207 -8 -210 -8
-8 -3197 -8 -3257 0 -68 9 -116 -1 -152 -32 -62 -52 -45 -136 37 -182 33 -18
55 -22 128 -21 49 0 328 -4 619 -9 701 -12 2947 -14 3490 -2 237 5 466 9 510
7 44 -1 113 -1 153 1 46 1 72 -2 72 -9 0 -6 7 -3 16 5 8 9 24 16 33 16 32 0
68 38 81 85 11 40 11 51 -3 80 -24 51 -64 58 -307 54 -113 -2 -422 -3 -687 -1
l-483 2 0 209 0 209 748 4 747 4 57 22 c75 30 108 69 108 129 0 36 -6 50 -29
74 -16 16 -38 29 -48 30 -10 1 -1129 2 -2488 3 -2284 1 -2472 0 -2506 -16z"/>
</g>
</svg>
