<?xml version="1.0" standalone="no"?>
<!DOCTYPE svg PUBLIC "-//W3C//DTD SVG 20010904//EN"
 "http://www.w3.org/TR/2001/REC-SVG-20010904/DTD/svg10.dtd">
<svg version="1.0" xmlns="http://www.w3.org/2000/svg"
 width="1024.000000pt" height="1024.000000pt" viewBox="0 0 1024.000000 1024.000000"
 preserveAspectRatio="xMidYMid meet">

<g transform="translate(0.000000,1024.000000) scale(0.100000,-0.100000)"
fill="#000000" stroke="none">
<path d="M2980 9159 c-184 -24 -311 -131 -366 -308 -14 -46 -16 -462 -12
-2506 1 -371 -1 -478 -12 -510 -19 -55 -17 -215 4 -295 30 -117 123 -222 240
-270 45 -18 56 -27 60 -51 3 -16 8 -42 11 -58 7 -35 39 -71 64 -71 34 0 86 45
113 99 15 29 29 56 32 58 3 3 36 -20 73 -50 79 -64 115 -80 155 -72 36 8 48
31 48 93 l0 50 83 7 c45 3 645 5 1332 3 1235 -3 1250 -3 1284 17 58 34 93 86
93 139 0 81 -59 136 -147 136 -46 0 -85 -24 -97 -60 -2 -7 -28 -16 -59 -21
-82 -12 -329 -10 -373 2 -31 8 -62 7 -141 -6 -120 -19 -102 -19 -895 -12 -679
6 -836 14 -935 47 -73 24 -90 40 -81 74 5 20 14 26 49 31 23 4 320 5 659 3
484 -2 620 0 629 10 19 18 97 15 159 -7 44 -15 98 -20 258 -25 210 -6 242 -2
242 32 0 28 21 42 60 42 23 0 39 -6 47 -19 16 -25 98 -33 250 -25 l123 7 0 33
0 34 -102 0 c-57 0 -152 -5 -213 -10 -78 -8 -142 -8 -220 0 -60 6 -236 12
-390 14 -154 2 -334 9 -400 16 -128 13 -383 9 -780 -11 -205 -11 -585 -2 -755
18 -52 5 -85 -15 -94 -57 -5 -21 2 -31 43 -62 64 -49 83 -48 120 6 31 45 91
82 117 72 23 -9 35 -53 50 -191 27 -240 28 -279 11 -294 -14 -11 -22 -9 -54
17 -59 47 -73 66 -88 123 -16 59 -34 83 -57 74 -20 -8 -34 -42 -49 -122 -6
-34 -20 -75 -30 -92 -20 -33 -63 -50 -88 -34 -36 22 -42 54 -35 183 l6 125
-36 39 c-55 58 -89 131 -83 178 7 49 46 101 105 138 78 49 121 54 361 44 119
-5 473 -9 786 -9 314 0 888 -4 1277 -8 536 -7 715 -6 743 3 22 7 45 26 60 48
l25 37 0 1498 c0 1461 -1 1500 -20 1555 -23 68 -82 126 -143 143 -43 12 -2604
15 -2616 3 -3 -3 -6 -735 -6 -1627 l0 -1622 -71 -3 -71 -3 -6 68 c-4 37 -7
125 -7 196 l0 127 -102 0 c-121 0 -152 -8 -276 -66 -51 -24 -96 -44 -101 -44
-10 0 -71 67 -71 78 0 4 10 25 23 46 17 31 40 49 101 82 101 54 164 67 309 62
l117 -3 0 121 c0 138 5 131 -89 140 -74 8 -174 -14 -307 -67 -114 -46 -121
-46 -157 3 -24 33 -17 70 21 108 54 54 221 97 412 107 l115 6 -1 636 0 636
-88 3 c-101 3 -162 -11 -271 -64 -85 -41 -116 -43 -144 -8 -23 30 -27 61 -10
97 12 27 19 32 141 94 l93 48 138 -1 137 0 0 107 0 107 -31 11 c-83 29 -274
-6 -385 -70 -72 -41 -90 -39 -116 16 -22 45 -22 46 -4 79 21 40 95 83 201 116
52 17 104 24 205 27 l135 5 2 229 2 229 -67 0 c-37 0 -76 2 -87 4 -11 2 -49 0
-85 -5z m2789 -227 l115 -7 1 -1398 c0 -994 -2 -1401 -10 -1407 -6 -5 -410
-10 -950 -10 -517 -1 -1007 -2 -1090 -3 -185 -1 -201 3 -222 51 -15 33 -17
167 -17 1394 -1 1100 1 1359 12 1370 14 14 18 14 1125 3 366 -4 567 -2 567 4
0 18 204 19 469 3z"/>
<path d="M5520 8754 c0 -37 51 -126 84 -147 13 -9 47 -25 75 -36 l50 -19 3
109 3 109 -92 0 c-50 0 -98 3 -107 6 -12 5 -16 0 -16 -22z"/>
<path d="M3759 8763 c-2 -16 3 -188 5 -191 9 -8 96 34 133 64 50 41 69 67 78
107 l7 27 -111 0 c-61 0 -111 -3 -112 -7z"/>
<path d="M4124 8678 c-18 -48 -43 -89 -71 -120 -50 -53 -180 -125 -246 -136
l-42 -8 0 -874 0 -874 45 -8 c141 -24 277 -155 340 -328 11 -29 21 -55 24 -57
2 -3 264 -6 580 -6 l576 -2 0 22 c0 109 65 216 172 281 113 68 144 82 184 82
l37 0 -6 143 c-4 78 -7 476 -7 883 l0 741 -37 6 c-130 18 -259 117 -301 230
-12 32 -22 67 -22 77 0 20 -10 20 -599 20 l-599 0 -28 -72z m761 -597 c17 -10
71 -56 120 -102 50 -46 122 -110 160 -141 39 -32 121 -106 183 -165 160 -154
162 -147 -68 -338 -85 -70 -282 -262 -332 -322 -64 -78 -156 -97 -209 -44 -40
40 -40 93 0 149 17 22 42 48 57 59 15 10 66 55 113 100 47 45 133 116 191 159
133 97 128 91 104 108 -16 12 -20 12 -27 1 -12 -22 -85 -28 -203 -16 -125 12
-833 19 -851 8 -7 -4 -9 -15 -6 -23 5 -13 48 -15 352 -12 351 3 476 -3 480
-25 1 -7 3 -39 6 -72 l3 -60 -41 -7 c-56 -10 -656 -28 -785 -24 -83 3 -107 7
-123 22 -40 36 -52 76 -57 179 -4 96 -3 101 21 127 13 14 42 31 63 37 25 7
194 11 473 11 431 0 435 0 458 21 l22 22 -51 56 c-36 39 -71 65 -118 87 -113
53 -142 124 -76 190 40 40 92 46 141 15z"/>
<path d="M3765 6417 c-4 -62 -6 -121 -4 -131 4 -15 19 -17 122 -19 78 -1 117
2 117 9 0 59 -83 180 -153 222 -75 46 -74 46 -82 -81z"/>
<path d="M5630 6480 c-66 -35 -130 -125 -130 -185 l0 -30 79 3 c44 2 95 -1
115 -6 l36 -10 0 124 0 124 -32 0 c-18 -1 -49 -9 -68 -20z"/>
<path d="M6769 8865 c-107 -85 -213 -171 -237 -189 -63 -50 -86 -84 -85 -123
2 -51 24 -77 136 -152 56 -37 125 -88 152 -113 134 -120 197 -150 258 -124 41
17 77 60 77 93 0 34 -25 88 -60 133 -16 21 -30 40 -30 42 0 3 28 1 63 -4 198
-27 361 -107 518 -255 90 -85 151 -167 199 -267 54 -114 70 -182 77 -332 12
-259 -40 -443 -177 -625 -89 -119 -273 -271 -386 -320 -50 -21 -236 -70 -243
-63 -2 2 19 28 47 59 62 67 83 124 61 163 -21 37 -60 63 -106 69 l-41 5 -154
-145 c-84 -79 -183 -171 -220 -202 -80 -69 -102 -107 -88 -154 14 -48 26 -59
115 -102 51 -25 114 -68 175 -120 114 -97 135 -109 195 -109 84 0 135 43 135
116 0 44 -28 91 -90 152 l-34 32 38 0 c68 0 165 32 304 100 75 37 170 91 210
119 93 66 205 172 246 232 173 256 194 297 231 452 30 126 36 232 24 389 -15
198 -68 349 -185 524 -201 303 -512 496 -836 520 -49 4 -88 9 -88 11 0 1 29
38 65 81 88 104 101 133 83 180 -17 46 -69 82 -118 82 -33 0 -59 -18 -231
-155z"/>
<path d="M1661 5179 c-58 -35 -55 17 -58 -852 -4 -756 -3 -804 14 -837 10 -19
29 -40 43 -46 16 -8 152 -14 386 -18 l360 -6 28 29 c27 28 27 29 29 181 l2
153 150 -6 c133 -5 170 -11 325 -50 177 -45 233 -58 620 -148 306 -71 355 -78
645 -90 343 -14 399 -10 615 51 96 26 263 67 370 89 219 46 331 80 387 118 68
46 125 96 144 127 13 21 19 25 19 14 0 -24 41 -33 85 -18 20 6 86 48 147 92
141 101 154 107 173 82 32 -41 -6 -94 -125 -171 -30 -20 -73 -51 -96 -69 -23
-18 -54 -36 -70 -40 -57 -14 -101 -44 -143 -97 -61 -80 -215 -225 -246 -233
-44 -11 -155 5 -223 33 -57 23 -73 25 -139 19 -64 -6 -197 -42 -244 -67 -9 -5
-50 -13 -90 -20 -51 -7 -94 -22 -139 -46 -72 -40 -127 -47 -231 -27 -95 18
-131 -15 -109 -98 31 -116 111 -203 284 -307 58 -35 144 -95 192 -133 141
-113 258 -161 374 -152 34 3 62 -4 114 -28 61 -27 86 -32 205 -41 199 -14 209
-11 470 132 90 49 95 50 113 34 12 -10 41 -18 77 -21 106 -8 230 43 421 171
127 85 367 320 453 444 32 44 95 123 141 175 71 79 97 100 177 144 193 106
196 107 296 112 l93 4 -2 -137 -1 -138 32 -29 32 -28 362 6 c199 4 370 11 380
16 48 25 46 0 47 857 1 878 4 828 -56 868 -23 15 -68 17 -365 21 -364 5 -381
3 -419 -46 -17 -21 -20 -40 -20 -135 l0 -109 -167 4 c-179 6 -240 16 -380 67
-119 44 -223 70 -343 86 -122 17 -264 9 -480 -27 -115 -19 -179 -22 -425 -24
-370 -2 -403 -10 -508 -124 -115 -124 -118 -280 -8 -425 90 -119 175 -141 583
-151 183 -4 306 -11 320 -18 12 -6 35 -33 51 -61 37 -64 66 -95 89 -95 22 0
172 43 222 64 38 16 46 36 21 56 -8 6 -36 46 -63 88 -28 43 -69 98 -93 123
-55 58 -42 56 -509 65 -390 7 -399 8 -446 69 -41 54 -42 93 -2 145 l34 45 389
5 c215 3 395 8 400 12 22 14 259 48 337 48 147 0 233 -20 448 -103 l105 -41
212 -4 212 -4 3 -346 c2 -191 1 -353 -1 -359 -2 -9 -26 -13 -75 -13 -123 -1
-203 -17 -306 -64 -202 -93 -295 -109 -471 -83 -57 9 -135 19 -174 21 -116 9
-164 27 -250 92 -44 33 -102 73 -129 88 -49 29 -111 86 -177 164 -41 48 -60
48 -80 -1 -20 -47 -114 -135 -206 -194 l-81 -51 -7 55 c-23 188 -118 281 -339
333 -77 19 -97 20 -182 10 -52 -5 -184 -33 -292 -61 -397 -104 -383 -101 -552
-102 -180 -1 -303 23 -397 77 -54 31 -54 31 -26 37 15 4 111 7 213 8 102 1
211 5 243 11 129 21 234 96 288 206 29 59 31 69 27 148 -8 154 -83 260 -225
318 -56 22 -67 23 -303 20 -235 -2 -252 -1 -415 28 -128 22 -200 30 -290 30
-235 -1 -310 -15 -613 -116 l-133 -45 -137 3 -137 3 0 107 c0 104 -1 108 -28
135 l-28 28 -361 0 c-312 0 -364 -2 -387 -16z m6556 -195 l82 -7 1 -631 c1
-347 2 -642 3 -656 l2 -25 -175 0 -175 0 -6 30 c-4 17 -7 315 -8 663 l-1 632
98 0 c53 0 134 -3 179 -6z m-5997 -669 l0 -665 -117 0 c-65 0 -148 3 -185 7
l-68 6 0 658 0 659 185 0 185 0 0 -665z m1350 553 c30 -6 91 -22 135 -36 79
-26 84 -26 390 -27 304 0 311 0 341 -22 17 -13 39 -39 49 -59 16 -34 16 -39 0
-80 -19 -50 -52 -80 -104 -93 -20 -5 -195 -12 -390 -16 -217 -4 -363 -10 -375
-17 -39 -20 -76 -62 -76 -86 0 -37 28 -88 55 -100 14 -7 60 -14 104 -18 l78
-7 20 -41 c27 -53 90 -136 130 -170 88 -74 221 -106 468 -113 193 -5 238 1
460 61 156 42 433 96 493 96 69 0 109 -21 137 -73 15 -28 17 -42 10 -63 -17
-47 -52 -62 -215 -94 -220 -43 -377 -86 -510 -138 -142 -55 -229 -71 -390 -72
-139 0 -380 15 -480 31 -96 14 -394 92 -591 153 -307 95 -381 109 -631 114
l-218 4 0 357 0 356 188 0 187 1 215 77 c118 43 238 82 265 86 56 10 172 5
255 -11z m2767 -1068 c20 -27 41 -50 45 -50 23 0 -3 -25 -109 -101 -65 -46
-155 -113 -199 -149 -228 -182 -323 -250 -476 -339 -122 -71 -170 -84 -280
-79 -74 3 -100 11 -238 66 -171 69 -219 105 -239 178 -9 33 -8 41 6 52 19 14
79 16 87 3 3 -5 59 -35 123 -67 l118 -59 140 0 c158 1 193 11 275 80 25 21 83
64 130 97 47 32 121 90 165 128 44 39 114 91 155 117 41 26 111 75 154 110 44
35 85 63 92 63 8 0 30 -22 51 -50z m301 -164 c26 -13 71 -29 100 -36 28 -6 52
-16 52 -21 0 -10 -92 -67 -194 -119 -44 -22 -112 -64 -150 -92 -72 -52 -123
-88 -218 -154 -29 -20 -82 -64 -118 -98 -190 -177 -237 -211 -450 -322 -125
-66 -290 -48 -290 31 0 33 27 49 141 86 52 16 119 46 149 66 82 54 188 131
249 182 72 61 263 207 441 338 80 58 160 119 178 135 40 34 50 35 110 4z m112
-310 c0 -109 -339 -366 -558 -421 -35 -9 -66 -14 -69 -11 -11 11 35 69 92 114
75 60 285 211 396 285 109 71 139 79 139 33z m-2042 -141 c70 -35 92 -56 92
-91 0 -14 -8 -16 -52 -12 -70 6 -123 32 -149 74 -44 71 -1 83 109 29z m257
-180 c50 -3 109 -8 132 -11 50 -6 103 -46 103 -77 0 -26 -26 -60 -57 -76 -32
-16 -112 -14 -169 5 -88 30 -123 66 -138 143 -5 31 -4 33 17 28 12 -3 63 -8
112 -12z"/>
<path d="M3227 1490 c-41 -12 -57 -29 -57 -59 0 -55 92 -100 135 -67 17 14 18
17 5 27 -13 9 -13 10 2 6 22 -8 41 17 33 43 -12 39 -71 64 -118 50z"/>
<path d="M3525 1485 c-16 -7 -41 -24 -54 -38 -22 -25 -23 -26 -6 -55 10 -16
27 -34 39 -42 20 -12 20 -11 -2 12 -55 61 -23 118 68 118 77 0 114 -61 73
-120 -16 -24 -16 -24 1 -10 28 22 39 60 26 91 -19 44 -92 67 -145 44z"/>
<path d="M3845 1482 c-16 -11 -37 -27 -45 -38 -12 -16 -10 -15 10 2 14 12 39
29 55 37 17 9 26 16 20 17 -5 0 -23 -8 -40 -18z"/>
<path d="M3908 1493 c6 -2 18 -2 25 0 6 3 1 5 -13 5 -14 0 -19 -2 -12 -5z"/>
<path d="M3967 1472 c12 -9 27 -28 32 -42 6 -15 10 -18 10 -9 1 20 -36 69 -52
69 -7 0 -2 -8 10 -18z"/>
<path d="M6450 1483 c-33 -13 -50 -37 -49 -67 l2 -31 5 30 c6 29 6 29 12 -10
l7 -40 2 51 c1 45 4 53 24 58 38 10 81 7 111 -9 37 -20 56 -19 28 1 -24 16
-116 28 -142 17z"/>
<path d="M6779 1461 c-35 -36 -36 -42 -3 -78 l25 -28 -21 31 c-21 30 -21 33
-5 57 22 35 49 42 99 26 56 -17 79 -38 73 -67 -3 -16 -1 -20 6 -13 19 19 -2
60 -43 81 -56 29 -96 26 -131 -9z"/>
<path d="M4154 1458 l-19 -23 23 19 c12 11 22 21 22 23 0 8 -8 2 -26 -19z"/>
<path d="M4132 1405 c0 -16 2 -22 5 -12 2 9 2 23 0 30 -3 6 -5 -1 -5 -18z"/>
<path d="M3781 1404 c0 -11 3 -14 6 -6 3 7 2 16 -1 19 -3 4 -6 -2 -5 -13z"/>
<path d="M3815 1340 c10 -11 20 -20 23 -20 3 0 -3 9 -13 20 -10 11 -20 20 -23
20 -3 0 3 -9 13 -20z"/>
<path d="M6420 1356 c0 -2 8 -10 18 -17 15 -13 16 -12 3 4 -13 16 -21 21 -21
13z"/>
<path d="M6468 1323 c6 -2 18 -2 25 0 6 3 1 5 -13 5 -14 0 -19 -2 -12 -5z"/>
</g>
</svg>
