<?xml version="1.0" standalone="no"?>
<!DOCTYPE svg PUBLIC "-//W3C//DTD SVG 20010904//EN"
 "http://www.w3.org/TR/2001/REC-SVG-20010904/DTD/svg10.dtd">
<svg version="1.0" xmlns="http://www.w3.org/2000/svg"
 width="1024.000000pt" height="1024.000000pt" viewBox="0 0 1024.000000 1024.000000"
 preserveAspectRatio="xMidYMid meet">

<g transform="translate(0.000000,1024.000000) scale(0.100000,-0.100000)"
fill="#000000" stroke="none">
<path d="M4905 7149 c-92 -17 -130 -30 -230 -79 -127 -62 -188 -107 -277 -205
-132 -144 -231 -322 -263 -475 -21 -101 -21 -342 0 -446 41 -195 144 -367 319
-530 74 -69 111 -95 202 -140 126 -61 264 -101 388 -110 65 -5 106 -1 204 19
139 29 230 68 359 153 100 67 253 226 294 306 16 31 42 78 58 104 17 26 45 90
63 143 33 95 33 97 32 281 0 212 -14 282 -84 429 -54 111 -111 189 -206 282
-254 245 -521 328 -859 268z"/>
<path d="M2941 7104 c-166 -44 -335 -192 -391 -342 -93 -244 -45 -499 124
-668 85 -85 143 -120 238 -145 132 -35 287 -17 389 44 92 54 203 173 276 297
26 43 53 170 53 247 0 118 -47 247 -128 355 -43 56 -148 141 -218 176 -99 50
-237 65 -343 36z"/>
<path d="M7025 7101 c-119 -34 -217 -103 -299 -210 -89 -115 -118 -204 -119
-356 -1 -194 45 -308 178 -441 89 -89 150 -124 262 -150 129 -31 299 -3 397
66 95 66 200 203 244 317 73 191 42 392 -84 562 -46 62 -161 156 -224 184
-111 50 -244 60 -355 28z"/>
<path d="M6720 5746 c-78 -31 -144 -79 -228 -164 -57 -59 -83 -96 -122 -176
-49 -99 -90 -231 -90 -293 0 -27 6 -35 53 -61 149 -83 320 -126 627 -157 123
-12 183 -13 290 -5 381 29 606 78 788 173 l54 28 -7 42 c-32 200 -92 325 -220
453 -75 76 -104 98 -175 132 -47 23 -97 44 -111 47 -26 6 -27 5 -34 -47 -9
-68 -41 -152 -76 -204 -41 -60 -126 -133 -187 -162 -111 -51 -277 -8 -374 96
-51 56 -105 170 -117 251 -6 35 -12 65 -13 67 -2 1 -28 -7 -58 -20z"/>
<path d="M2600 5746 c-75 -28 -168 -92 -240 -165 -102 -103 -152 -196 -190
-346 -17 -64 -30 -123 -30 -131 0 -48 283 -147 526 -184 77 -11 150 -23 164
-26 80 -15 315 -16 460 0 257 28 419 66 550 131 116 57 112 52 105 115 -8 71
-57 218 -98 294 -61 115 -165 205 -334 290 -40 20 -79 36 -86 36 -9 0 -18 -22
-25 -66 -23 -138 -110 -257 -234 -319 -79 -39 -150 -46 -222 -20 -130 46 -245
190 -278 348 -13 61 -15 62 -68 43z"/>
<path d="M4364 4781 c-103 -49 -226 -122 -279 -166 -28 -24 -100 -91 -161
-151 -202 -200 -329 -454 -394 -791 -14 -74 -17 -109 -10 -118 6 -7 102 -54
214 -104 327 -147 513 -187 1131 -243 146 -13 503 -4 705 17 278 29 605 107
803 191 156 67 267 120 285 138 10 10 7 41 -17 162 -37 185 -65 268 -137 403
-78 148 -152 247 -270 361 -117 112 -139 128 -329 237 -193 111 -181 110 -188
16 -8 -98 -36 -202 -72 -273 -101 -199 -240 -326 -410 -375 -83 -24 -229 -17
-305 15 -173 74 -315 198 -387 336 -47 90 -87 218 -98 312 -4 34 -10 62 -13
62 -4 0 -34 -13 -68 -29z"/>
</g>
</svg>
